<svg xmlns="http://www.w3.org/2000/svg" width="600" height="650" viewBox="0 0 600 650"><rect width="100%" height="100%" fill="#000000"/><path fill="#FFF" d="M127.765 321.48h4.92q1.81 0 3.16-.45t2.24-1.3q.9-.84 1.34-2.06.44-1.21.44-2.7 0-1.42-.44-2.58-.44-1.15-1.32-1.96-.89-.8-2.23-1.23-1.35-.43-3.19-.43h-4.92v12.71Zm-6.59-17.81h11.51q3.55 0 6.15.84 2.6.83 4.29 2.32 1.69 1.5 2.51 3.58.82 2.08.82 4.56 0 2.57-.86 4.71-.85 2.15-2.57 3.69-1.71 1.54-4.3 2.4-2.58.86-6.04.86h-4.92v12.47h-6.59v-35.43Zm34.71 11.81.37 2.84q1.18-2.25 2.79-3.54 1.62-1.28 3.83-1.28 1.73 0 2.79.76l-.39 4.53q-.13.44-.36.62-.23.19-.62.19-.37 0-1.09-.12-.73-.13-1.41-.13-1.01 0-1.79.3-.79.29-1.41.84-.62.55-1.1 1.34-.48.78-.9 1.79v15.48h-6.05v-25.14h3.55q.94 0 1.3.33.37.33.49 1.19Zm24.06-1.91q2.79 0 5.09.91 2.29.9 3.92 2.57 1.62 1.67 2.51 4.07.88 2.4.88 5.36 0 2.99-.88 5.39-.89 2.4-2.51 4.09-1.63 1.69-3.92 2.6-2.3.91-5.09.91-2.82 0-5.12-.91-2.3-.91-3.93-2.6-1.63-1.69-2.52-4.09-.9-2.4-.9-5.39 0-2.96.9-5.36.89-2.4 2.52-4.07 1.63-1.67 3.93-2.57 2.3-.91 5.12-.91Zm0 21.24q3.14 0 4.64-2.1 1.51-2.11 1.51-6.18t-1.51-6.2q-1.5-2.13-4.64-2.13-3.18 0-4.71 2.15-1.54 2.14-1.54 6.18 0 4.04 1.54 6.16 1.53 2.12 4.71 2.12Zm32.81-3.16v-11.27q-1.03-1.25-2.24-1.76-1.22-.52-2.61-.52-1.38 0-2.48.52-1.1.51-1.88 1.55-.79 1.04-1.21 2.65-.41 1.6-.41 3.78 0 2.21.35 3.74.36 1.53 1.02 2.5t1.62 1.4q.95.43 2.13.43 1.89 0 3.21-.79 1.32-.78 2.5-2.23Zm0-28.96h6.05v36.41h-3.7q-1.2 0-1.52-1.1l-.51-2.43q-1.52 1.74-3.5 2.82-1.97 1.08-4.59 1.08-2.06 0-3.77-.86-1.72-.86-2.95-2.49-1.24-1.63-1.92-4.03-.67-2.4-.67-5.49 0-2.79.76-5.19.76-2.4 2.18-4.16 1.42-1.77 3.41-2.76 1.98-.99 4.46-.99 2.1 0 3.6.66 1.49.66 2.67 1.79v-13.26Zm27.63 11.27h6.05v25.14h-3.69q-1.21 0-1.52-1.1l-.42-2.01q-1.54 1.57-3.41 2.53-1.86.97-4.38.97-2.06 0-3.64-.7-1.58-.69-2.66-1.97-1.08-1.27-1.63-3.02-.55-1.76-.55-3.86v-15.98h6.05v15.98q0 2.3 1.07 3.56 1.06 1.26 3.2 1.26 1.56 0 2.94-.69 1.37-.7 2.59-1.93v-18.18Zm31.63 3.11-1.59 2.21q-.27.34-.53.54-.25.19-.74.19-.47 0-.91-.28-.44-.28-1.05-.63-.62-.36-1.46-.64-.85-.28-2.1-.28-1.59 0-2.79.57-1.2.58-2 1.66-.79 1.07-1.18 2.61-.4 1.53-.4 3.46 0 2.01.43 3.58.43 1.57 1.24 2.63.81 1.07 1.96 1.62t2.6.55q1.44 0 2.34-.35.89-.36 1.5-.79.62-.43 1.07-.78.45-.36 1.02-.36.73 0 1.1.57l1.74 2.2q-1.01 1.18-2.18 1.97-1.18.8-2.44 1.28t-2.6.67q-1.33.2-2.66.2-2.32 0-4.38-.87t-3.6-2.54q-1.55-1.66-2.44-4.08-.89-2.41-.89-5.5 0-2.77.79-5.13.8-2.36 2.34-4.09 1.54-1.73 3.82-2.71t5.25-.98q2.81 0 4.93.91 2.12.9 3.81 2.59Zm12.4 22.42q-3.28 0-5.04-1.85-1.75-1.85-1.75-5.11V318.5h-2.57q-.49 0-.83-.32-.35-.32-.35-.96v-2.4l4.05-.66 1.27-6.86q.12-.49.47-.76.34-.27.88-.27h3.13v7.91h6.72v4.32h-6.72v13.62q0 1.17.58 1.83.58.67 1.58.67.56 0 .94-.14.38-.13.67-.28.28-.15.5-.28.22-.14.44-.14.27 0 .44.14.17.13.37.4l1.81 2.94q-1.32 1.11-3.04 1.67-1.71.56-3.55.56Zm27.81-18.18v11.27q1.03 1.25 2.24 1.77 1.21.51 2.63.51 1.37 0 2.48-.51 1.1-.52 1.87-1.57t1.19-2.66q.42-1.6.42-3.78 0-2.21-.36-3.74-.35-1.53-1.02-2.49-.66-.95-1.6-1.39-.94-.44-2.14-.44-1.89 0-3.21.79-1.33.8-2.5 2.24Zm-.81-6.24.49 2.32q1.54-1.74 3.5-2.81 1.96-1.08 4.61-1.08 2.06 0 3.76.85 1.7.86 2.94 2.49 1.24 1.63 1.91 4.02.67 2.39.67 5.48 0 2.81-.76 5.21t-2.16 4.17q-1.41 1.76-3.41 2.76-2 .99-4.47.99-2.11 0-3.6-.65-1.5-.65-2.67-1.8v10.29h-6.05v-33.35h3.7q1.17 0 1.54 1.11Zm27.93.41.37 2.84q1.17-2.25 2.79-3.54 1.62-1.28 3.82-1.28 1.74 0 2.79.76l-.39 4.53q-.12.44-.35.62-.24.19-.63.19-.37 0-1.09-.12-.72-.13-1.41-.13-1 0-1.79.3-.78.29-1.4.84-.63.55-1.11 1.34-.47.78-.89 1.79v15.48h-6.05v-25.14h3.55q.93 0 1.3.33t.49 1.19Zm17.71 8.16h11.42q0-1.18-.33-2.22-.33-1.04-.99-1.82-.67-.79-1.68-1.24-1.02-.45-2.37-.45-2.62 0-4.12 1.49-1.51 1.5-1.93 4.24Zm15.44 3.65h-15.56q.15 1.94.69 3.35.53 1.4 1.42 2.32.88.92 2.09 1.37 1.21.46 2.68.46 1.47 0 2.54-.35 1.07-.34 1.86-.75.8-.42 1.4-.76.6-.35 1.16-.35.76 0 1.13.57l1.74 2.2q-1.01 1.18-2.26 1.97-1.24.8-2.6 1.28t-2.77.67q-1.41.2-2.73.2-2.63 0-4.88-.87t-3.92-2.57q-1.67-1.71-2.62-4.22-.96-2.51-.96-5.82 0-2.57.84-4.84.83-2.26 2.38-3.94 1.56-1.68 3.8-2.66 2.24-.98 5.06-.98 2.38 0 4.39.76t3.45 2.22q1.45 1.46 2.27 3.57.82 2.12.82 4.84 0 1.38-.3 1.85-.29.48-1.12.48Zm23.84-13.33h4.77l-9.97 25.14h-5.49l-9.97-25.14h5q.69 0 1.14.32.45.32.6.81l4.85 13.43q.39 1.17.69 2.3.29 1.13.51 2.25.25-1.12.54-2.25.29-1.13.71-2.3l4.95-13.43q.17-.49.61-.81.44-.32 1.06-.32Zm8.18 0h6.07v25.14h-6.07v-25.14Zm6.91-7.32q0 .78-.32 1.47-.32.68-.85 1.2-.52.51-1.23.82-.71.3-1.52.3-.79 0-1.48-.3-.7-.31-1.22-.82-.51-.52-.82-1.2-.3-.69-.3-1.47 0-.81.3-1.52.31-.71.82-1.23.52-.51 1.22-.82.69-.3 1.48-.3.81 0 1.52.3.71.31 1.23.82.53.52.85 1.23.32.71.32 1.52Zm10.12 17h11.41q0-1.18-.33-2.22-.33-1.04-.99-1.82-.66-.79-1.68-1.24-1.01-.45-2.36-.45-2.62 0-4.13 1.49-1.51 1.5-1.92 4.24Zm15.43 3.65h-15.56q.15 1.94.69 3.35.54 1.4 1.42 2.32.88.92 2.1 1.37 1.21.46 2.68.46 1.47 0 2.53-.35 1.07-.34 1.87-.75.79-.42 1.39-.76.6-.35 1.17-.35.76 0 1.12.57l1.74 2.2q-1 1.18-2.25 1.97-1.25.8-2.61 1.28-1.36.48-2.77.67-1.41.2-2.73.2-2.62 0-4.88-.87-2.25-.87-3.92-2.57-1.66-1.71-2.62-4.22-.95-2.51-.95-5.82 0-2.57.83-4.84.83-2.26 2.39-3.94 1.55-1.68 3.8-2.66 2.24-.98 5.06-.98 2.37 0 4.38.76t3.46 2.22q1.44 1.46 2.26 3.57.82 2.12.82 4.84 0 1.38-.29 1.85-.3.48-1.13.48Zm37.24-13.33h4.61l-7.99 25.14h-4.85q-.83 0-1.15-1.08l-4.51-14.53q-.22-.73-.4-1.45-.19-.73-.31-1.46-.15.73-.33 1.48-.19.75-.41 1.48l-4.58 14.48q-.29 1.08-1.3 1.08h-4.65l-7.96-25.14h4.82q.66 0 1.13.32.47.32.61.81l3.6 13.43q.27 1.1.48 2.15.21 1.06.36 2.11.27-1.05.57-2.11.31-1.05.65-2.15l4.17-13.48q.14-.49.57-.81.43-.32 1.04-.32h2.67q.64 0 1.09.32.46.32.61.81l4.04 13.48q.32 1.1.6 2.16.28 1.07.55 2.12.32-2.08.91-4.28l3.7-13.43q.17-.49.61-.81.44-.32 1.05-.32Z"/></svg>